HIERARCHY
ROOT Hips
{
 OFFSET 0.000000 0.000000 0.000000
 CHANNELS 6 Xposition Yposition Zposition Yrotation Xrotation Zrotation
 JOINT Chest
 {
  OFFSET 0.000000 10.737675 -1.193075
  CHANNELS 3 Yrotation Xrotation Zrotation
  JOINT Chest2
  {
   OFFSET 0.000000 12.001122 0.000000
   CHANNELS 3 Yrotation Xrotation Zrotation
   JOINT Chest3
   {
    OFFSET 0.000000 10.955751 0.009049
    CHANNELS 3 Yrotation Xrotation Zrotation
    JOINT Chest4
    {
     OFFSET 0.000000 10.943524 0.009058
     CHANNELS 3 Yrotation Xrotation Zrotation
     JOINT Neck
     {
      OFFSET 0.000000 15.322021 0.000000
      CHANNELS 3 Yrotation Xrotation Zrotation
      JOINT Head
      {
       OFFSET 0.000000 10.186116 -0.019461
       CHANNELS 3 Yrotation Xrotation Zrotation
       End Site
       {
        OFFSET 0.000000 18.961773 -0.002617
       }
      }
     }
     JOINT RightCollar
     {
      OFFSET -3.313897 8.583378 0.000000
      CHANNELS 3 Yrotation Xrotation Zrotation
      JOINT RightShoulder
      {
       OFFSET -15.310706 0.000000 0.000000
       CHANNELS 3 Yrotation Xrotation Zrotation
       JOINT RightElbow
       {
        OFFSET -32.687170 0.000000 0.000000
        CHANNELS 3 Yrotation Xrotation Zrotation
        JOINT RightWrist
        {
         OFFSET -26.735356 0.000000 0.000000
         CHANNELS 3 Yrotation Xrotation Zrotation
         JOINT Prop1
         {
          OFFSET -9.837286 -1.093032 2.186064
          CHANNELS 3 Yrotation Xrotation Zrotation
          End Site
          {
           OFFSET 0.000000 0.000000 180.876438
          }
         }
         End Site
         {
          OFFSET -20.002482 0.000000 0.000000
         }
        }
       }
      }
     }
     JOINT LeftCollar
     {
      OFFSET 3.313897 8.583378 0.000000
      CHANNELS 3 Yrotation Xrotation Zrotation
      JOINT LeftShoulder
      {
       OFFSET 15.310706 0.000000 0.000000
       CHANNELS 3 Yrotation Xrotation Zrotation
       JOINT LeftElbow
       {
        OFFSET 32.687170 0.000000 0.000000
        CHANNELS 3 Yrotation Xrotation Zrotation
        JOINT LeftWrist
        {
         OFFSET 26.735356 0.000000 0.000000
         CHANNELS 3 Yrotation Xrotation Zrotation
         End Site
         {
          OFFSET 20.002482 0.000000 0.000000
         }
        }
       }
      }
     }
    }
   }
  }
 }
 JOINT RightHip
 {
  OFFSET -8.791979 -0.020941 0.002327
  CHANNELS 3 Yrotation Xrotation Zrotation
  JOINT RightKnee
  {
   OFFSET 0.000000 -45.783943 0.002139
   CHANNELS 3 Yrotation Xrotation Zrotation
   JOINT RightAnkle
   {
    OFFSET 0.000000 -44.772112 0.003606
    CHANNELS 3 Yrotation Xrotation Zrotation
    JOINT RightToe
    {
     OFFSET 0.000000 -7.135648 16.083753
     CHANNELS 3 Yrotation Xrotation Zrotation
     End Site
     {
      OFFSET 0.000000 -1.637513 6.979937
     }
    }
   }
  }
 }
 JOINT LeftHip
 {
  OFFSET 8.791979 -0.023356 0.002595
  CHANNELS 3 Yrotation Xrotation Zrotation
  JOINT LeftKnee
  {
   OFFSET 0.000000 -45.783943 0.002139
   CHANNELS 3 Yrotation Xrotation Zrotation
   JOINT LeftAnkle
   {
    OFFSET 0.000000 -44.772112 0.003606
    CHANNELS 3 Yrotation Xrotation Zrotation
    JOINT LeftToe
    {
     OFFSET 0.000000 -7.135648 16.083753
     CHANNELS 3 Yrotation Xrotation Zrotation
     End Site
     {
      OFFSET 0.000000 -1.637513 6.979937
     }
    }
   }
  }
 }
}
MOTION
Frames: 12
Frame Time: 0.016667
6.292223 81.366659 -2.964353 1.617778 32.729818 -2.737742 -2.566516 23.700777 1.025279 -1.227660 4.701991 0.571465 -1.244522 10.521068 0.444708 -0.901453 13.726512 0.361100 2.468321 3.822012 -0.664179 5.493877 -28.845122 -2.842151 10.038542 1.643743 -3.259014 36.107124 -66.938568 35.770790 35.833259 -17.753761 2.711906 5.699213 -0.945949 -0.368309 -30.830524 -15.841915 4.263913 -6.818269 1.710417 -2.470940 -44.973040 -56.626751 -19.638698 -36.512249 -26.538565 1.935166 0.694130 -3.068537 2.976624 -41.619213 -74.684585 27.996239 4.707190 70.607401 13.014256 -12.092238 -22.973896 0.946993 0.004914 -2.750539 -0.204771 -23.100345 -79.605422 29.522762 -1.511249 69.791385 -8.114443 1.260322 -21.265646 -0.521680 -0.005853 -0.548573 1.222546
6.298964 81.355130 -2.958202 1.657208 32.787377 -2.667004 -2.552119 23.698617 1.045614 -1.223287 4.700963 0.579433 -1.240089 10.520052 0.453128 -0.897635 13.725732 0.367440 2.462130 3.750764 -0.679333 5.495640 -28.976733 -2.875419 10.117291 1.641227 -3.262146 35.807202 -67.086206 36.150711 35.895491 -17.968426 2.404094 5.833081 -1.010256 0.065062 -30.905038 -15.478979 3.745308 -6.812728 1.733344 -2.503357 -44.829488 -56.986791 -19.868827 -36.601129 -26.110941 1.737378 0.646261 -3.257036 3.627481 -41.796536 -74.775011 28.136963 4.596212 70.673978 12.902412 -12.155835 -22.958267 0.961944 0.004402 -2.792108 -0.180640 -23.364600 -79.657313 29.710630 -1.491517 69.806941 -8.148525 1.403568 -21.250324 -0.529333 -0.005962 -0.571105 1.196194
6.321134 81.364384 -2.962806 1.694480 32.847343 -2.635840 -2.564501 23.681738 1.082065 -1.232232 4.693253 0.595619 -1.249141 10.512323 0.468393 -0.903461 13.719893 0.379222 2.466967 3.683145 -0.714822 5.532137 -29.099808 -2.957064 10.276196 1.653605 -3.221833 34.737178 -67.870450 37.083110 35.595773 -17.309221 2.686960 5.833811 -0.972225 0.248428 -30.931474 -15.368893 3.637057 -6.789595 1.776261 -2.586705 -44.550481 -57.522782 -20.172293 -36.601160 -25.762646 1.265255 0.516015 -3.582466 4.239764 -41.877942 -74.832487 28.182170 4.484956 70.670026 12.814941 -12.177189 -22.945219 0.978730 0.004181 -2.794570 -0.171360 -23.539032 -79.699502 29.792027 -1.494652 69.770929 -8.141280 1.527465 -21.228574 -0.503419 -0.005712 -0.572626 1.143011
6.353928 81.396221 -2.975174 1.727658 32.911730 -2.622872 -2.595122 23.650979 1.123453 -1.249661 4.679307 0.614796 -1.266779 10.498339 0.485776 -0.915564 13.709349 0.392753 2.480582 3.619141 -0.758712 5.591645 -29.215152 -3.061167 10.480654 1.674640 -3.158247 33.076563 -69.021364 38.500829 35.108879 -16.138008 3.266009 5.769865 -0.862890 0.284473 -30.958892 -15.384900 3.793915 -6.755627 1.822108 -2.704653 -44.196946 -58.149231 -20.525175 -36.530092 -25.404873 0.652438 0.308835 -3.987228 4.899140 -41.884156 -74.866869 28.154554 4.362993 70.603284 12.727724 -12.170870 -22.920053 0.990920 0.004064 -2.775757 -0.167725 -23.632483 -79.726400 29.780331 -1.502088 69.680995 -8.105249 1.643889 -21.192100 -0.459292 -0.005278 -0.562499 1.075008
6.395420 81.448700 -2.984326 1.747450 32.979756 -2.589734 -2.620918 23.607990 1.148256 -1.263353 4.660013 0.626565 -1.280613 10.479012 0.496141 -0.925253 13.694814 0.400852 2.493222 3.561698 -0.783823 5.637512 -29.319478 -3.125464 10.644022 1.652563 -3.103030 31.476421 -69.979964 39.917998 34.587028 -15.247609 3.783250 5.753593 -0.746917 0.335162 -30.938207 -15.300630 3.854118 -6.748893 1.809328 -2.798062 -43.879021 -58.563988 -20.883064 -36.409738 -25.237038 0.137865 0.020124 -4.363148 5.597800 -41.811930 -74.903440 28.046847 4.279308 70.497072 12.670613 -12.148822 -22.867383 0.974887 0.003577 -2.764167 -0.148267 -23.574036 -79.730321 29.606906 -1.489634 69.544636 -8.046480 1.755047 -21.147535 -0.414768 -0.004812 -0.549175 1.004145
6.448514 81.521124 -2.987775 1.748669 33.051849 -2.516542 -2.630935 23.550973 1.144793 -1.267369 4.634662 0.625341 -1.284623 10.453651 0.494514 -0.928343 13.675793 0.399617 2.503229 3.517500 -0.771341 5.654349 -29.401661 -3.109343 10.697326 1.577654 -3.072099 30.316026 -70.603033 41.056377 34.000119 -14.945769 4.116710 5.826405 -0.643174 0.485537 -30.821474 -15.000695 3.655840 -6.796193 1.704378 -2.835358 -43.680919 -58.577069 -21.197848 -36.257346 -25.432162 -0.162732 -0.383292 -4.688532 6.382170 -41.691874 -74.953164 27.884030 4.277421 70.359509 12.667202 -12.112426 -22.775987 0.910748 0.002332 -2.772836 -0.096350 -23.329120 -79.708177 29.229853 -1.421970 69.363994 -7.937891 1.855493 -21.099709 -0.381503 -0.004358 -0.533341 0.936344
6.510305 81.614191 -2.988007 1.736598 33.127603 -2.423172 -2.636040 23.481721 1.124720 -1.267624 4.603972 0.616679 -1.284809 10.422961 0.485838 -0.929011 13.652799 0.392926 2.512055 3.479809 -0.740126 5.656918 -29.472963 -3.053161 10.709526 1.459482 -3.049803 29.333236 -71.042326 42.073693 33.358312 -14.926505 4.397342 5.945323 -0.532827 0.651621 -30.658885 -14.600299 3.362040 -6.870386 1.540655 -2.848141 -43.534368 -58.379687 -21.501439 -36.054346 -25.816791 -0.367114 -0.870396 -4.982824 7.203225 -41.492278 -75.004910 27.639952 4.312573 70.182495 12.692750 -12.060420 -22.657029 0.818593 0.000697 -2.788768 -0.028612 -22.937294 -79.662603 28.695845 -1.336145 69.136944 -7.807853 1.950636 -21.043660 -0.347881 -0.003886 -0.514422 0.865656
6.570160 81.728051 -2.981505 1.717676 33.204963 -2.330887 -2.645912 23.407186 1.101500 -1.269679 4.570940 0.606881 -1.286816 10.389925 0.475841 -0.931122 13.628046 0.385255 2.514561 3.431491 -0.719594 5.653687 -29.563671 -3.016168 10.800930 1.275033 -3.020910 28.421196 -71.195764 42.931113 32.844279 -15.070937 4.668136 6.096646 -0.424693 0.741972 -30.546573 -14.220206 3.096548 -6.928214 1.356960 -2.872020 -43.326784 -58.241182 -21.861404 -35.766732 -26.069702 -0.586072 -1.338948 -5.204721 7.909384 -41.115581 -75.050406 27.229705 4.301564 69.965078 12.704818 -12.000716 -22.528728 0.734678 -0.000648 -2.801383 0.026518 -22.440193 -79.594408 28.070478 -1.314205 68.864581 -7.743301 2.058989 -20.971334 -0.296828 -0.003424 -0.498957 0.786248
6.625517 81.866679 -2.963883 1.702819 33.287543 -2.239139 -2.668786 23.330352 1.079101 -1.277536 4.536853 0.598076 -1.294697 10.355820 0.466241 -0.937591 13.602487 0.377985 2.502577 3.356508 -0.723200 5.637169 -29.703211 -3.022688 11.067842 0.999239 -2.974732 27.559476 -70.937331 43.526142 32.594330 -15.439024 4.970239 6.270670 -0.314053 0.705691 -30.531782 -13.889135 2.866452 -6.936894 1.183661 -2.922756 -43.052788 -58.293076 -22.280498 -35.375871 -26.075322 -0.853532 -1.721180 -5.300782 8.443813 -40.457029 -75.094477 26.541718 4.213226 69.702813 12.709408 -11.930263 -22.406938 0.671701 -0.001346 -2.800136 0.055067 -21.761368 -79.505191 27.279504 -1.426603 68.532697 -7.802619 2.195371 -20.887495 -0.212840 -0.002888 -0.479514 0.690186
6.678937 82.026100 -2.939526 1.681112 33.371741 -2.148489 -2.696365 23.248187 1.053644 -1.287176 4.500404 0.588157 -1.304378 10.319349 0.455342 -0.945482 13.575156 0.369749 2.484436 3.270910 -0.737467 5.615184 -29.862149 -3.048480 11.413800 0.657095 -2.923373 26.845693 -70.396923 43.885619 32.470116 -15.974218 5.271455 6.478604 -0.205016 0.594688 -30.566541 -13.579042 2.663578 -6.928848 0.990470 -2.984605 -42.710972 -58.402539 -22.761057 -34.902377 -25.947159 -1.130665 -2.075209 -5.330210 8.863446 -39.618800 -75.129339 25.684593 4.080350 69.400250 12.702315 -11.852156 -22.275796 0.617124 -0.001733 -2.795548 0.071021 -20.990532 -79.391798 26.410198 -1.595709 68.155385 -7.919690 2.344910 -20.787338 -0.111277 -0.002368 -0.463556 0.585408
6.727465 82.194545 -2.918075 1.626069 33.444700 -2.081982 -2.713586 23.158621 1.026837 -1.292144 4.460696 0.577090 -1.309319 10.279630 0.443781 -0.949880 13.545392 0.360918 2.479797 3.205780 -0.751418 5.619371 -29.982372 -3.080109 11.670117 0.300809 -2.884653 26.330353 -69.854803 44.184509 32.246206 -16.382945 5.502993 6.739141 -0.120412 0.470708 -30.600891 -13.325794 2.587588 -6.958248 0.725056 -3.045792 -42.193258 -58.440207 -23.369595 -34.370027 -25.706487 -1.417073 -2.483802 -5.422722 9.189388 -38.818823 -75.129501 24.908958 3.918725 69.069860 12.628709 -11.783446 -22.106046 0.569200 -0.002154 -2.808604 0.087872 -20.409471 -79.250045 25.761643 -1.684236 67.776263 -7.997980 2.481674 -20.648528 -0.021435 -0.002052 -0.479888 0.489953
6.769874 82.362053 -2.903582 1.518838 33.490532 -2.047295 -2.709273 23.057855 0.999563 -1.287591 4.416058 0.564685 -1.304600 10.235000 0.431868 -0.947092 13.511952 0.351643 2.501175 3.186444 -0.763404 5.672696 -30.016286 -3.119668 11.747893 -0.072666 -2.868866 26.159407 -69.354823 44.394693 31.793374 -16.580956 5.607122 7.093616 -0.077834 0.353522 -30.614599 -13.153648 2.708650 -7.065041 0.303354 -3.105440 -41.333475 -58.341714 -24.242729 -33.725388 -25.277055 -1.759814 -3.009070 -5.650622 9.394686 -38.175002 -75.083814 24.352405 3.737231 68.730841 12.449023 -11.728778 -21.881501 0.531041 -0.002783 -2.855109 0.111685 -20.194008 -79.073297 25.526151 -1.611919 67.432993 -7.999382 2.582559 -20.450293 0.034257 -0.002068 -0.559349 0.423574
